<svg width="45" height="45" viewBox="0 0 256 256" fill="none" xmlns="http://www.w3.org/2000/svg"> <rect width="256" height="256" rx="60" fill="#FFFFFF"/>
<path d="M0 0 C0.80115219 0.38069468 0.80115219 0.38069468 1.61848927 0.76908016 C4.08037781 1.93845247 6.54274913 3.10680484 9.00512695 4.27514648 C9.84499397 4.67425987 10.68486099 5.07337326 11.55017853 5.48458099 C16.65186835 7.90419459 21.7727694 10.27205602 26.91796875 12.59765625 C50.09165934 23.37392006 50.09165934 23.37392006 53.85595703 33.38061523 C54.32054398 34.77955301 54.7649774 36.18530172 55.19189453 37.59619141 C56.87846191 42.61309243 59.31432694 47.34079609 61.5625 52.125 C62.51620667 54.21528739 63.46808282 56.3064111 64.41796875 58.3984375 C66.32415944 62.56201343 68.29431933 66.67124633 70.375 70.75 C74.08401006 78.03587011 77.47951663 85.46117369 80.90280151 92.88473511 C85.14587222 102.07970743 89.50428134 111.20696775 93.9375 120.3125 C101.20468063 135.42566326 108.09785366 150.71667595 115 166 C115 131.02 115 96.04 115 60 C115.66 59.67 116.32 59.34 117 59 C119.28058189 60.07303518 121.43372135 61.20236026 123.625 62.4375 C124.99772058 63.19058632 126.37145105 63.94183421 127.74609375 64.69140625 C128.45362793 65.07828613 129.16116211 65.46516602 129.89013672 65.86376953 C135.84279543 69.06947118 141.94520452 71.99536465 148 75 C154.6 78.3 161.2 81.6 168 85 C168 150.67 168 216.34 168 284 C163.96377832 282.38551133 160.63036051 280.71607672 156.921875 278.515625 C156.35100159 278.17754822 155.78012817 277.83947144 155.19195557 277.4911499 C153.9874666 276.77673813 152.78401248 276.06057905 151.58154297 275.34277344 C149.77185749 274.26304107 147.95850921 273.18968902 146.14453125 272.1171875 C140.26797766 268.63019743 134.46354969 265.07736008 128.83325195 261.19946289 C126.76797286 259.80083536 126.76797286 259.80083536 123.4375 258.1875 C112.29927319 251.92224742 106.61409598 238.40657122 101.22021484 227.47558594 C98.76577929 222.50316957 96.22499684 217.58520653 93.625 212.6875 C90.28282124 206.38683671 86.99575771 200.0596954 83.74609375 193.7109375 C83.367341 192.9711264 82.98858826 192.23131531 82.59835815 191.46908569 C81.81601678 189.94083808 81.03367836 188.41258895 80.25134277 186.88433838 C74.50667231 175.66485952 68.72158981 164.4896059 62.57421875 153.48364258 C58.46619712 146.10971145 54.71443453 138.57777735 51 131 C49.68 128.36 48.36 125.72 47 123 C46.67 155.01 46.34 187.02 46 220 C45.34 220.33 44.68 220.66 44 221 C44 220.34 44 219.68 44 219 C43.14188721 218.73807861 42.28377441 218.47615723 41.3996582 218.20629883 C37.91828208 216.97100408 34.85357595 215.45491976 31.60546875 213.69921875 C31.01381424 213.38096634 30.42215973 213.06271393 29.81257629 212.7348175 C27.93512093 211.72347341 26.06132046 210.70555994 24.1875 209.6875 C22.94228557 209.01585264 21.69684454 208.34462523 20.45117188 207.67382812 C1.40235428 197.40235428 1.40235428 197.40235428 0 196 C-0.09774692 193.47064748 -0.1299541 190.96862583 -0.12025452 188.43882751 C-0.12110894 187.63759683 -0.12196337 186.83636614 -0.12284368 186.01085573 C-0.12450093 183.30531066 -0.11897314 180.59982654 -0.11352539 177.89428711 C-0.11324355 175.96312969 -0.1134012 174.03197217 -0.1139679 172.10081482 C-0.11425598 166.84070191 -0.10835757 161.58061159 -0.10139394 156.32050395 C-0.09516212 150.82984578 -0.09455674 145.33918716 -0.09336853 139.848526 C-0.0902547 129.44334309 -0.08204063 119.03817063 -0.07201904 108.63299233 C-0.06085949 96.79039054 -0.05534785 84.94778826 -0.05032361 73.10518253 C-0.03985805 48.73678255 -0.02225763 24.36839186 0 0 Z " fill="#4F78CF" transform="translate(0,101)"/>
<path d="M0 0 C0.24055631 10.79675473 0.39399069 21.59096121 0.43784332 32.39041042 C0.46091414 37.40616759 0.5133725 42.41794451 0.63427734 47.43237305 C0.74998859 52.27711936 0.78682124 57.11678054 0.7702179 61.96281624 C0.77752452 63.80619655 0.81271841 65.64969402 0.87687683 67.49197197 C1.26178076 79.1752007 1.26178076 79.1752007 -1 84 C-4.842105 88.09842146 -9.96011914 90.21340953 -15.10411453 92.24425316 C-17.36550001 93.14569735 -19.47260286 94.25107046 -21.60424805 95.42358398 C-22.82136873 96.03515655 -24.04047163 96.64280342 -25.26171875 97.24609375 C-25.93764069 97.58402954 -26.61356262 97.92196533 -27.30996704 98.2701416 C-29.43369296 99.33024911 -31.56037258 100.38423689 -33.6875 101.4375 C-35.17673792 102.17834322 -36.66591364 102.91931146 -38.1550293 103.66040039 C-68.69935048 118.83548092 -68.69935048 118.83548092 -77 122 C-78.84135748 120.15864252 -78.12775027 117.18032095 -78.12939453 114.71459961 C-78.13114685 114.05740433 -78.13289917 113.40020905 -78.13470459 112.72309875 C-78.13913184 110.53282076 -78.13617707 108.34262269 -78.1328125 106.15234375 C-78.1334865 104.62268559 -78.13445732 103.09302754 -78.13571167 101.56336975 C-78.13719078 98.34098298 -78.13503172 95.11862381 -78.13037109 91.89624023 C-78.12474551 87.81176703 -78.12790507 83.72736059 -78.13394356 79.64288998 C-78.13760548 76.47253442 -78.13638392 73.30219393 -78.13381577 70.13183784 C-78.13315815 68.6295019 -78.13393309 67.12716448 -78.13629532 65.62483025 C-78.14884243 55.3781635 -77.75233062 45.21930956 -77 35 C-76.24056091 34.70144608 -75.48112183 34.40289215 -74.69866943 34.09529114 C-71.46752183 32.7838866 -68.38531348 31.25756355 -65.265625 29.69921875 C-64.62816345 29.38096634 -63.9907019 29.06271393 -63.33392334 28.7348175 C-61.98872531 28.06255751 -60.64402796 27.38929484 -59.29980469 26.71508789 C-57.27165594 25.69835634 -55.24142997 24.68586936 -53.2109375 23.67382812 C-46.99932892 20.56928774 -40.8179438 17.43987825 -34.79272461 13.98217773 C-31.95142361 12.4255178 -28.99145198 11.24173479 -26 10 C-24.9275 9.443125 -23.855 8.88625 -22.75 8.3125 C-20 7 -20 7 -17 7 C-16.67 6.34 -16.34 5.68 -16 5 C-13.91306895 3.86454853 -11.77956755 2.81368426 -9.625 1.8125 C-8.46226562 1.26207031 -7.29953125 0.71164062 -6.1015625 0.14453125 C-3 -1 -3 -1 0 0 Z " fill="#4DABCE" transform="translate(271,264)"/>
<path d="M0 0 C0 28.05 0 56.1 0 85 C-12.24479167 91.12239583 -24.48958333 97.24479167 -36.734375 103.3671875 C-37.91733154 103.95886719 -39.10028809 104.55054688 -40.3190918 105.16015625 C-42.71836051 106.35936378 -45.11820373 107.55736137 -47.51879883 108.75390625 C-52.80825563 111.39188675 -58.09320104 114.03537321 -63.33984375 116.7578125 C-64.09362305 117.14598145 -64.84740234 117.53415039 -65.62402344 117.93408203 C-66.94548567 118.61670202 -68.26298077 119.30709178 -69.57519531 120.00732422 C-71.26171875 120.875 -71.26171875 120.875 -74 122 C-74.99 121.67 -75.98 121.34 -77 121 C-77.02323754 111.37665489 -77.04097305 101.75331954 -77.05181217 92.12995243 C-77.05701612 87.66076219 -77.06406828 83.19159125 -77.07543945 78.72241211 C-77.08635713 74.40412139 -77.09229556 70.08584916 -77.09487724 65.7675457 C-77.09671555 64.12544909 -77.10030514 62.48335341 -77.10573006 60.84126472 C-77.16024687 43.64521668 -77.16024687 43.64521668 -76 37 C-74.06946092 35.06946092 -72.83632786 34.33654854 -70.40234375 33.23046875 C-69.68739746 32.90135498 -68.97245117 32.57224121 -68.23583984 32.2331543 C-67.4773877 31.88808838 -66.71893555 31.54302246 -65.9375 31.1875 C-60.51873302 28.68640001 -55.19072305 26.15843409 -50.0546875 23.10546875 C-47.71571354 21.8470474 -45.29827935 20.83591623 -42.85205078 19.8059082 C-39.83991189 18.49519498 -36.92529212 16.99141565 -34 15.5 C-26.91090685 11.92526138 -19.77881863 8.44327634 -12.625 5 C-11.60792969 4.50693359 -10.59085937 4.01386719 -9.54296875 3.50585938 C-8.59292969 3.05017578 -7.64289063 2.59449219 -6.6640625 2.125 C-5.81279785 1.71507812 -4.9615332 1.30515625 -4.08447266 0.8828125 C-2 0 -2 0 0 0 Z " fill="#50ABCF" transform="translate(270,149)"/>
<path d="M0 0 C0 28.71 0 57.42 0 87 C-42.22222222 108.11111111 -42.22222222 108.11111111 -55.44921875 114.28515625 C-58.99430212 115.89678699 -58.99430212 115.89678699 -62 118 C-62.99 118 -63.98 118 -65 118 C-65 89.62 -65 61.24 -65 32 C-49 24 -49 24 -46 24 C-45.67 23.34 -45.34 22.68 -45 22 C-42.97855896 20.77423256 -40.96834848 19.65383853 -38.875 18.5625 C-38.22990479 18.2219458 -37.58480957 17.8813916 -36.92016602 17.53051758 C-27.87556406 12.81527764 -18.6266839 8.50623033 -9.40576172 4.14990234 C-7.38288367 3.18301016 -5.37730413 2.19192584 -3.37890625 1.17578125 C-1 0 -1 0 0 0 Z " fill="#4FABCF" transform="translate(360,217)"/>
<path d="M0 0 C0.33 0 0.66 0 1 0 C1 28.38 1 56.76 1 86 C-25.203125 99.1015625 -25.203125 99.1015625 -27.76977539 100.38476562 C-29.51127759 101.25560244 -31.25263896 102.12672093 -32.99389648 102.99804688 C-37.24946524 105.12714505 -41.50647634 107.25311324 -45.76953125 109.3671875 C-46.49946289 109.72989746 -47.22939453 110.09260742 -47.98144531 110.46630859 C-49.31719032 111.12979339 -50.65371348 111.79171521 -51.99121094 112.45166016 C-54.6679105 113.78272442 -57.25754657 115.15760847 -59.80859375 116.71875 C-62 118 -62 118 -64 118 C-64.09258899 106.96926071 -64.16370855 95.93861352 -64.20724869 84.90756512 C-64.22814347 79.78564946 -64.25649563 74.66399921 -64.30175781 69.54223633 C-64.3451481 64.60149837 -64.36912285 59.66101606 -64.37950897 54.72010231 C-64.38691261 52.83297512 -64.40136988 50.94586227 -64.42292023 49.05884361 C-64.45186392 46.42002253 -64.45595985 43.78226424 -64.45410156 41.14331055 C-64.46848267 40.3592836 -64.48286377 39.57525665 -64.49768066 38.76747131 C-64.45715872 33.46644377 -64.45715872 33.46644377 -62.09625244 31.05758667 C-61.40448914 30.70858307 -60.71272583 30.35957947 -60 30 C-59.34193359 29.6486499 -58.68386719 29.2972998 -58.00585938 28.93530273 C-57.29236328 28.60473877 -56.57886719 28.2741748 -55.84375 27.93359375 C-54.58232178 27.34167236 -54.58232178 27.34167236 -53.29541016 26.73779297 C-52.3729248 26.30869629 -51.45043945 25.87959961 -50.5 25.4375 C-39.46508979 20.23435931 -28.53722778 14.82962905 -17.625 9.375 C-16.80862061 8.96796844 -15.99224121 8.56093689 -15.15112305 8.14157104 C-12.82096518 6.97945199 -10.49225965 5.81447881 -8.1640625 4.6484375 C-7.45468536 4.29474594 -6.74530823 3.94105438 -6.01443481 3.5766449 C-2.79505547 2.10247201 -2.79505547 2.10247201 0 0 Z " fill="#4FABCF" transform="translate(359,103)"/>
<path d="M0 0 C2.76956815 1.18702899 5.44728289 2.5374126 8.1328125 3.90234375 C9.31155693 4.49281494 9.31155693 4.49281494 10.51411438 5.09521484 C13.05420167 6.36986875 15.58970521 7.65334386 18.125 8.9375 C19.86060649 9.81158113 21.59636507 10.68536031 23.33227539 11.55883789 C51.02274326 25.51505321 51.02274326 25.51505321 64 33 C60.59870265 35.78752941 56.87147295 37.65753236 52.9375 39.5625 C46.8770736 42.53944161 40.89286601 45.63107253 34.9375 48.8125 C26.68401156 53.20732604 18.29325318 57.27542776 9.82788086 61.24536133 C8.45128296 61.89347778 8.45128296 61.89347778 7.046875 62.5546875 C6.17482422 62.96299805 5.30277344 63.37130859 4.40429688 63.79199219 C2.22175974 64.88857969 0.24370188 66.10988568 -1.796875 67.4453125 C-5 69 -5 69 -7.9453125 68.5078125 C-11.62662385 66.69069462 -15.27163255 64.84243697 -18.875 62.875 C-20.3950818 62.05849516 -21.91593315 61.24342158 -23.4375 60.4296875 C-24.20191406 60.02073242 -24.96632812 59.61177734 -25.75390625 59.19042969 C-35.76502518 53.88453666 -45.9896197 48.99741118 -56.26708984 44.23242188 C-61.64845991 41.71669822 -66.84158269 38.9451594 -72 36 C-72 35.34 -72 34.68 -72 34 C-71.41847168 33.69932617 -70.83694336 33.39865234 -70.23779297 33.08886719 C-59.28477173 27.41841245 -48.36960612 21.69457748 -37.5625 15.75 C-28.81248677 10.94068389 -19.96722088 6.38843947 -11 2 C-9.96875 1.41347656 -8.9375 0.82695313 -7.875 0.22265625 C-4.41771719 -1.24762842 -3.56229176 -1.03308306 0 0 Z " fill="#4FABCE" transform="translate(186,95)"/>
<path d="M0 0 C1.75683893 0.93873186 3.5092518 1.88578086 5.2578125 2.83984375 C7.14389843 3.84884006 9.03062325 4.85664296 10.91796875 5.86328125 C12.31039795 6.60916504 12.31039795 6.60916504 13.73095703 7.37011719 C17.35692173 9.29426196 21.01760898 11.14198604 24.6953125 12.96484375 C25.32864502 13.27905273 25.96197754 13.59326172 26.61450195 13.91699219 C27.88406207 14.5463329 29.15383657 15.17524132 30.42382812 15.80371094 C32.51298696 16.84204162 34.59677977 17.89059521 36.6796875 18.94140625 C37.39342529 19.30081299 38.10716309 19.66021973 38.8425293 20.03051758 C40.19368521 20.71119394 41.54416726 21.39321047 42.89379883 22.0769043 C46.99734213 24.13913459 51.14563045 26.00503465 55.3828125 27.77734375 C53.92745471 32.14341712 50.58801378 33.06590837 46.6953125 35.02734375 C45.92364746 35.42574463 45.15198242 35.82414551 44.35693359 36.23461914 C38.63153483 39.17993611 32.86561249 42.04539656 27.09765625 44.90625 C23.54267536 46.68422544 20.01941386 48.51979846 16.50366211 50.37402344 C14.88056141 51.22669277 13.25240712 52.06981035 11.61938477 52.90332031 C7.59417178 54.97675671 3.79502261 57.12115631 0.09375 59.734375 C-9.52001631 66.25220179 -9.52001631 66.25220179 -15.04394531 65.40527344 C-20.48962804 63.69280787 -25.37622744 60.99272962 -30.2890625 58.12304688 C-32.91787008 56.60354316 -35.60234457 55.28035082 -38.34057617 53.97290039 C-50.02316935 48.36345667 -61.44463065 42.14828699 -72.93847656 36.16259766 C-75.15617867 35.01574733 -77.38042172 33.88641233 -79.6171875 32.77734375 C-79.6171875 32.11734375 -79.6171875 31.45734375 -79.6171875 30.77734375 C-74.26984725 28.09108481 -68.92105767 25.40773904 -63.57104492 22.72680664 C-61.76044611 21.81903046 -59.95021013 20.91053014 -58.14038086 20.0012207 C-47.75201706 14.78249027 -37.33974165 9.63499784 -26.80607605 4.71473694 C-22.00831786 2.46812845 -17.31969655 0.09623262 -12.72265625 -2.54296875 C-8.01087959 -4.06402467 -4.19128919 -2.12451951 0 0 Z " fill="#50ABCE" transform="translate(97.6171875,50.22265625)"/>
<path d="M0 0 C0.8971875 0.4846875 1.794375 0.969375 2.71875 1.46875 C17.23907789 9.28283903 32.00923529 16.5073991 46.8840332 23.62109375 C54.63283725 27.33053274 62.34083952 31.10876283 70 35 C70 35.66 70 36.32 70 37 C68.82719482 37.58378418 67.65438965 38.16756836 66.44604492 38.76904297 C61.99607215 40.98481684 57.54753063 43.20345193 53.09936523 45.42285156 C51.19251369 46.37379924 49.28530059 47.32402235 47.37768555 48.2734375 C44.59843511 49.6568345 41.82069012 51.04322338 39.04296875 52.4296875 C38.12385712 52.88591492 37.20474548 53.34214233 36.25778198 53.81219482 C31.64437029 56.11578141 27.08605096 58.48116626 22.58447266 60.99707031 C21.72525711 61.47153595 20.86604156 61.94600159 19.98078918 62.43484497 C18.3622029 63.3345407 16.75265263 64.2507618 15.15434265 65.18600464 C9.79288401 68.15246421 9.79288401 68.15246421 5.6875 67.36303711 C4.3571875 66.68833374 4.3571875 66.68833374 3 66 C1.27330078 65.19369141 1.27330078 65.19369141 -0.48828125 64.37109375 C-1.76532832 63.73114662 -3.03995648 63.08635631 -4.3125 62.4375 C-5.00980225 62.08598877 -5.70710449 61.73447754 -6.42553711 61.37231445 C-11.3427494 58.88045047 -16.20565408 56.29443636 -21.0625 53.6875 C-28.93939374 49.45992019 -36.97837753 45.60233877 -45.07055664 41.80541992 C-50.18387037 39.39636066 -55.13989109 36.88779325 -60 34 C-60 33.34 -60 32.68 -60 32 C-59.40276123 31.68885254 -58.80552246 31.37770508 -58.19018555 31.05712891 C-45.54453097 24.46770186 -32.90593813 17.86547125 -20.29492188 11.20996094 C-17.89055933 9.94229915 -15.48440807 8.67807444 -13.078125 7.4140625 C-11.51036851 6.58863312 -9.94265837 5.76311572 -8.375 4.9375 C-7.64555176 4.55505127 -6.91610352 4.17260254 -6.16455078 3.77856445 C-2.87396066 2.18998596 -2.87396066 2.18998596 0 0 Z " fill="#50ABCF" transform="translate(272,46)"/>
<path d="M0 0 C2.63037109 1.08813477 2.63037109 1.08813477 5.2734375 2.44140625 C6.25505859 2.93866211 7.23667969 3.43591797 8.24804688 3.94824219 C9.27994141 4.48094727 10.31183594 5.01365234 11.375 5.5625 C13.53905807 6.66276914 15.70312057 7.76302954 17.8671875 8.86328125 C18.91874023 9.40162598 19.97029297 9.9399707 21.05371094 10.49462891 C24.85695724 12.43785203 28.67679891 14.34645292 32.5 16.25 C33.7435262 16.87362491 34.98701618 17.49732204 36.23046875 18.12109375 C38.95429228 19.48408898 41.68777527 20.82589049 44.42578125 22.16015625 C45.15925781 22.52012695 45.89273438 22.88009766 46.6484375 23.25097656 C48.05093616 23.93893507 49.45575908 24.6221833 50.86328125 25.29980469 C54.02573949 26.85673213 56.72949516 28.25682501 59 31 C47.77484875 37.52296191 36.29873489 43.52616399 24.73364258 49.41821289 C23.53848898 50.02994417 22.3434201 50.641841 21.1484375 51.25390625 C19.97506836 51.85348145 18.80169922 52.45305664 17.59277344 53.07080078 C15.06491587 54.39572113 12.62442604 55.8162776 10.19628906 57.31591797 C9.572836 57.69521957 8.94938293 58.07452118 8.30703735 58.46531677 C6.57536654 59.52914485 4.85869357 60.61727465 3.14306641 61.70678711 C0 63 0 63 -3.02709961 62.39477539 C-4.00815674 61.93449951 -4.98921387 61.47422363 -6 61 C-6.97348389 60.55333984 -7.94696777 60.10667969 -8.94995117 59.64648438 C-9.97064697 59.13408203 -10.99134277 58.62167969 -12.04296875 58.09375 C-13.19023437 57.51947266 -14.3375 56.94519531 -15.51953125 56.35351562 C-16.7422924 55.73588472 -17.96494651 55.11804186 -19.1875 54.5 C-20.44784567 53.86639521 -21.70826293 53.23293281 -22.96875 52.59960938 C-31.68494482 48.21104752 -40.33879843 43.71052406 -48.95703125 39.1328125 C-54.25576872 36.32338951 -59.61653966 33.64337573 -65 31 C-65 30.34 -65 29.68 -65 29 C-56.38194947 24.24849978 -47.64867567 19.82880085 -38.75 15.625 C-28.88925593 10.96490838 -19.2111761 6.02204427 -9.60620117 0.85693359 C-5.88438298 -1.12871496 -4.1943329 -0.93594401 0 0 Z " fill="#4FABCE" transform="translate(184,2)"/>
<path d="M0 0 C0.99 0.33 1.98 0.66 3 1 C2.67 28.72 2.34 56.44 2 85 C1.01 84.67 0.02 84.34 -1 84 C-0.67 57.27 -0.34 30.54 0 3 C-1.32 3.33 -2.64 3.66 -4 4 C-2.68 2.68 -1.36 1.36 0 0 Z " fill="#7ABAD1" transform="translate(268,263)"/>
<path d="M0 0 C0.33 0 0.66 0 1 0 C1 27.06 1 54.12 1 82 C1.66 82.33 2.32 82.66 3 83 C1.68 83 0.36 83 -1 83 C-1.02322317 73.35938416 -1.04096581 63.71877802 -1.05181217 54.07814026 C-1.05701923 49.6010743 -1.06407715 45.12402756 -1.07543945 40.64697266 C-1.08634594 36.32220268 -1.09229323 31.99745113 -1.09487724 27.67266846 C-1.09671754 26.02695425 -1.10031109 24.38124099 -1.10573006 22.73553467 C-1.11304364 20.42132427 -1.11398662 18.10718894 -1.11352539 15.79296875 C-1.115746 14.4783667 -1.11796661 13.16376465 -1.12025452 11.80932617 C-0.99363819 7.79847571 -0.55717479 3.97099367 0 0 Z " fill="#8BC4D6" transform="translate(194,187)"/>
<path d="M0 0 C1.485 0.99 1.485 0.99 3 2 C2.34 2 1.68 2 1 2 C1 37.97 1 73.94 1 111 C0.34 110.67 -0.32 110.34 -1 110 C-1.02333029 95.80543958 -1.0409134 81.61088213 -1.05181217 67.4163065 C-1.05704172 60.82595215 -1.06414067 54.23561063 -1.07543945 47.64526367 C-1.08626578 41.29107982 -1.09227629 34.93690835 -1.09487724 28.58271599 C-1.09673195 26.15250389 -1.10035343 23.72229251 -1.10573006 21.29208565 C-1.11293711 17.90117019 -1.11399108 14.51030659 -1.11352539 11.11938477 C-1.11712067 10.10374954 -1.12071594 9.08811432 -1.12442017 8.04170227 C-1.1230455 7.12318481 -1.12167084 6.20466736 -1.12025452 5.25831604 C-1.12117631 4.45543435 -1.1220981 3.65255266 -1.12304783 2.82534122 C-1 1 -1 1 0 0 Z " fill="#8FB2E0" transform="translate(116,160)"/>
<path d="M0 0 C5.47932789 1.54545146 10.11429181 4.15543212 15 7 C12.51988153 9.55200596 10.26356349 11.48761692 7 13 C5 12.3125 5 12.3125 3 11 C1.33859237 10.32033324 -0.32700041 9.65061095 -2 9 C-1.67 8.01 -1.34 7.02 -1 6 C0.65 5.67 2.3 5.34 4 5 C4 4.34 4 3.68 4 3 C2.68 2.67 1.36 2.34 0 2 C0 1.34 0 0.68 0 0 Z " fill="#67B2CF" transform="translate(228,25)"/>
<path d="M0 0 C0.66 0.33 1.32 0.66 2 1 C1.67 1.99 1.34 2.98 1 4 C-1.0625 4.6875 -1.0625 4.6875 -3 5 C-3.01030746 5.60863892 -3.02061493 6.21727783 -3.03123474 6.84436035 C-3.13978012 13.20395615 -3.25433611 19.56342391 -3.37231445 25.92285156 C-3.41550998 28.2932669 -3.45719529 30.66371028 -3.49731445 33.03417969 C-3.55539125 36.44995557 -3.61897633 39.86559233 -3.68359375 43.28125 C-3.70030624 44.33364868 -3.71701874 45.38604736 -3.73423767 46.47033691 C-3.84561004 52.0566693 -4.18738788 57.47076738 -5 63 C-5.33 63 -5.66 63 -6 63 C-6.02503286 56.88428025 -6.04301473 50.76859143 -6.05493164 44.65283203 C-6.05990846 42.57958455 -6.06669232 40.50634047 -6.07543945 38.43310547 C-6.12552008 26.2428916 -5.98447006 14.15548604 -5 2 C-2.625 0.9375 -2.625 0.9375 0 0 Z " fill="#8FC6D7" transform="translate(199,297)"/>
<path d="M0 0 C0.78375 0.04125 1.5675 0.0825 2.375 0.125 C2.375 0.785 2.375 1.445 2.375 2.125 C-0.16419006 3.42173602 -2.70614238 4.71247837 -5.25 6 C-5.96285156 6.36480469 -6.67570312 6.72960937 -7.41015625 7.10546875 C-11.41251837 9.12500927 -15.31417073 10.8331111 -19.625 12.125 C-19.955 11.465 -20.285 10.805 -20.625 10.125 C-19.305 10.125 -17.985 10.125 -16.625 10.125 C-16.851875 9.361875 -17.07875 8.59875 -17.3125 7.8125 C-17.625 5.125 -17.625 5.125 -16.5 3.3125 C-14.08686517 1.78418128 -12.42862763 1.89767884 -9.625 2.125 C-9.625 2.785 -9.625 3.445 -9.625 4.125 C-6.13897495 2.84067498 -3.4981714 0.16657959 0 0 Z " fill="#5CAFD0" transform="translate(321.625,319.875)"/>
<path d="M0 0 C0 0.66 0 1.32 0 2 C-0.99 2 -1.98 2 -3 2 C-3 2.99 -3 3.98 -3 5 C0.3 4.67 3.6 4.34 7 4 C7.33 5.32 7.66 6.64 8 8 C8.66 8.33 9.32 8.66 10 9 C10.72159424 10.64363134 11.39351421 12.31050386 12 14 C7.75707468 12.39369175 3.72974893 10.4231838 -0.3125 8.375 C-0.95767578 8.05015625 -1.60285156 7.7253125 -2.26757812 7.390625 C-3.84597541 6.59558044 -5.42311694 5.79804366 -7 5 C-7 4.34 -7 3.68 -7 3 C-2.61538462 0 -2.61538462 0 0 0 Z " fill="#5BAECB" transform="translate(126,28)"/>
<path d="M0 0 C5.6848656 1.24789733 10.86113435 4.33916443 16 7 C16 7.66 16 8.32 16 9 C14.71086513 9.67154933 13.41859796 10.33708859 12.125 11 C11.40570313 11.37125 10.68640625 11.7425 9.9453125 12.125 C8 13 8 13 6 13 C6 12.01 6 11.02 6 10 C6.639375 9.87625 7.27875 9.7525 7.9375 9.625 C8.618125 9.41875 9.29875 9.2125 10 9 C10.33 8.34 10.66 7.68 11 7 C10.401875 6.855625 9.80375 6.71125 9.1875 6.5625 C7.43849596 6.1127561 5.71322977 5.57107659 4 5 C4 4.34 4 3.68 4 3 C2.35 3.66 0.7 4.32 -1 5 C-1 4.34 -1 3.68 -1 3 C-1.66 2.67 -2.32 2.34 -3 2 C-2.01 1.34 -1.02 0.68 0 0 Z " fill="#7AB7CE" transform="translate(326,74)"/>
<path d="M0 0 C0.66 0 1.32 0 2 0 C2 1.32 2 2.64 2 4 C3.98 4 5.96 4 8 4 C8.33 5.65 8.66 7.3 9 9 C10.32 9.33 11.64 9.66 13 10 C13 10.66 13 11.32 13 12 C8.49272353 11.39733215 5.1412037 9.63400206 1.1875 7.4375 C0.59001953 7.10814453 -0.00746094 6.77878906 -0.62304688 6.43945312 C-2.08533998 5.63226733 -3.5431399 4.81695083 -5 4 C-4.0409375 3.8453125 -4.0409375 3.8453125 -3.0625 3.6875 C-2.381875 3.460625 -1.70125 3.23375 -1 3 C-0.67 2.01 -0.34 1.02 0 0 Z " fill="#6B8CCB" transform="translate(32,308)"/>
<path d="M0 0 C0.66 0.33 1.32 0.66 2 1 C1.1875 3.4375 1.1875 3.4375 0 6 C-3 7 -3 7 -5 7.4375 C-7.29037046 7.970624 -7.29037046 7.970624 -10 10 C-13.1875 10.125 -13.1875 10.125 -16 10 C-16.33 10.66 -16.66 11.32 -17 12 C-17.66 11.34 -18.32 10.68 -19 10 C-15.88187059 8.29956587 -12.75449747 6.61690705 -9.625 4.9375 C-8.29082031 4.20950195 -8.29082031 4.20950195 -6.9296875 3.46679688 C-6.07890625 3.01240234 -5.228125 2.55800781 -4.3515625 2.08984375 C-3.56604004 1.66566162 -2.78051758 1.24147949 -1.97119141 0.80444336 C-1.32069824 0.53897705 -0.67020508 0.27351074 0 0 Z " fill="#73B6D2" transform="translate(167,101)"/>
<path d="M0 0 C-0.45375 0.5775 -0.9075 1.155 -1.375 1.75 C-2.84113516 3.7800333 -3.94857784 5.73539843 -5 8 C-10.75 6.125 -10.75 6.125 -13 5 C-13 4.34 -13 3.68 -13 3 C-4.738041 -1.77676538 -4.738041 -1.77676538 0 0 Z " fill="#6EB3CE" transform="translate(31,78)"/>
<path d="M0 0 C0.66 0.33 1.32 0.66 2 1 C1.67 1.99 1.34 2.98 1 4 C-3.39145699 4.85686966 -7.52474708 5.25818767 -12 5 C-12.66 4.34 -13.32 3.68 -14 3 C-9.07064958 0.08492729 -5.78397931 -1.79027931 0 0 Z " fill="#70B6D0" transform="translate(184,2)"/>
<path d="M0 0 C-2.68566588 1.44101533 -5.37342059 2.87787947 -8.0625 4.3125 C-8.81466797 4.71662109 -9.56683594 5.12074219 -10.34179688 5.53710938 C-14.82010163 7.92166126 -19.30583659 10.07370984 -24 12 C-25.32 11.01 -26.64 10.02 -28 9 C-26.85015625 8.75636719 -25.7003125 8.51273438 -24.515625 8.26171875 C-19.10155522 6.91058636 -14.50962511 4.32824205 -9.6484375 1.65820312 C-3.96866829 -1.33945285 -3.96866829 -1.33945285 0 0 Z " fill="#75B4C9" transform="translate(108,104)"/>
<path d="M0 0 C1.65 0 3.3 0 5 0 C0.89906427 3.20822288 -3.4850639 5.42636691 -8.125 7.75 C-8.94871094 8.17410156 -9.77242187 8.59820312 -10.62109375 9.03515625 C-11.80251953 9.62876953 -11.80251953 9.62876953 -13.0078125 10.234375 C-14.08506592 10.77916504 -14.08506592 10.77916504 -15.18408203 11.33496094 C-16.08296143 11.66415527 -16.08296143 11.66415527 -17 12 C-17.66 11.67 -18.32 11.34 -19 11 C-16.43937755 8.049525 -13.53328543 6.55003782 -10.0625 4.8125 C-9.02222656 4.28269531 -7.98195312 3.75289063 -6.91015625 3.20703125 C-4 2 -4 2 0 2 C0 1.34 0 0.68 0 0 Z " fill="#84BFD3" transform="translate(243,359)"/>
<path d="M0 0 C1 3 1 3 0 7 C-2.97 7 -5.94 7 -9 7 C-9 7.66 -9 8.32 -9 9 C-10.98 9.66 -12.96 10.32 -15 11 C-15.66 10.34 -16.32 9.68 -17 9 C-14.73272667 7.82592979 -12.46165376 6.66060261 -10.1875 5.5 C-9.22360352 4.99919922 -9.22360352 4.99919922 -8.24023438 4.48828125 C-5.30452301 2.99760916 -3.33873483 2 0 2 C0 1.34 0 0.68 0 0 Z " fill="#7DBCD4" transform="translate(254,269)"/>
<path d="M0 0 C2.31 0 4.62 0 7 0 C7 0.66 7 1.32 7 2 C8.65 2 10.3 2 12 2 C12 2.99 12 3.98 12 5 C13.32 5 14.64 5 16 5 C16 5.66 16 6.32 16 7 C18.97 7.495 18.97 7.495 22 8 C20.23876953 9.09277344 20.23876953 9.09277344 18 10 C16.10888672 9.52441406 16.10888672 9.52441406 14.1796875 8.515625 C13.47972656 8.15726563 12.77976563 7.79890625 12.05859375 7.4296875 C11.33800781 7.04039063 10.61742187 6.65109375 9.875 6.25 C8.78251953 5.68925781 8.78251953 5.68925781 7.66796875 5.1171875 C2.339889 2.339889 2.339889 2.339889 0 0 Z " fill="#74B6CC" transform="translate(138,42)"/>
<path d="M0 0 C0 0.66 0 1.32 0 2 C-0.99 2 -1.98 2 -3 2 C-3 2.66 -3 3.32 -3 4 C-3.66 4 -4.32 4 -5 4 C-5.33 4.99 -5.66 5.98 -6 7 C-6.66 7 -7.32 7 -8 7 C-8 7.66 -8 8.32 -8 9 C-11.3 9 -14.6 9 -18 9 C-14.63150009 6.47362507 -11.6146535 4.67313841 -7.875 2.8125 C-6.82054687 2.28269531 -5.76609375 1.75289062 -4.6796875 1.20703125 C-2 0 -2 0 0 0 Z " fill="#7EBBD4" transform="translate(341,227)"/>
<path d="M0 0 C-1 3 -1 3 -2.62646484 4.07495117 C-3.31434082 4.39439697 -4.0022168 4.71384277 -4.7109375 5.04296875 C-5.46117187 5.39423828 -6.21140625 5.74550781 -6.984375 6.10742188 C-8.16773438 6.64206055 -8.16773438 6.64206055 -9.375 7.1875 C-10.15617188 7.55552734 -10.93734375 7.92355469 -11.7421875 8.30273438 C-17.58709705 11 -17.58709705 11 -21 11 C-18.92733168 8.75564079 -17.00788067 7.31595919 -14.27734375 5.95703125 C-13.22256836 5.43012695 -13.22256836 5.43012695 -12.14648438 4.89257812 C-11.41751953 4.53615234 -10.68855469 4.17972656 -9.9375 3.8125 C-9.20466797 3.44447266 -8.47183594 3.07644531 -7.71679688 2.69726562 C-2.26721939 0 -2.26721939 0 0 0 Z " fill="#7CB9D0" transform="translate(226,139)"/>
<path d="M0 0 C-11.9140625 5.95703125 -11.9140625 5.95703125 -14.01269531 7.00244141 C-15.81546414 7.90736935 -17.60761529 8.83337298 -19.3984375 9.76171875 C-22 11 -22 11 -24 11 C-24 10.34 -24 9.68 -24 9 C-22.35 8.67 -20.7 8.34 -19 8 C-19 7.34 -19 6.68 -19 6 C-18.01 6 -17.02 6 -16 6 C-16 5.34 -16 4.68 -16 4 C-13.36 3.67 -10.72 3.34 -8 3 C-7.67 2.01 -7.34 1.02 -7 0 C-3.86650268 -1.04449911 -3.01031744 -0.93423645 0 0 Z " fill="#66AEC7" transform="translate(324,207)"/>
<path d="M0 0 C0.33 0.99 0.66 1.98 1 3 C1.66 3 2.32 3 3 3 C3 2.01 3 1.02 3 0 C3.66 0 4.32 0 5 0 C5 0.66 5 1.32 5 2 C5.66 2.33 6.32 2.66 7 3 C-2.8380744 9.19693654 -2.8380744 9.19693654 -7.6875 8.375 C-8.8321875 7.694375 -8.8321875 7.694375 -10 7 C-10 6.67 -10 6.34 -10 6 C-7.36 6 -4.72 6 -2 6 C-1.855625 5.195625 -1.71125 4.39125 -1.5625 3.5625 C-1 1 -1 1 0 0 Z " fill="#6CB4D0" transform="translate(188,56)"/>
<path d="M0 0 C-2.078812 1.00936536 -4.1632362 2.00717846 -6.25 3 C-7.41015625 3.556875 -8.5703125 4.11375 -9.765625 4.6875 C-13 6 -13 6 -17 6 C-17 4.68 -17 3.36 -17 2 C-14.91952703 1.4678559 -12.83547707 0.94968214 -10.75 0.4375 C-9.58984375 0.14746094 -8.4296875 -0.14257812 -7.234375 -0.44140625 C-4.27909017 -0.95179964 -2.75565899 -1.02996165 0 0 Z " fill="#55A8CE" transform="translate(212,263)"/>
<path d="M0 0 C0.99 0.33 1.98 0.66 3 1 C3 1.66 3 2.32 3 3 C3.99 3 4.98 3 6 3 C8.60018816 6.90028225 8.15085514 10.47434569 8 15 C5.84821844 12.23612808 4.01629579 9.43466931 2.3125 6.375 C1.87550781 5.59898437 1.43851562 4.82296875 0.98828125 4.0234375 C0 2 0 2 0 0 Z " fill="#7492CF" transform="translate(95,315)"/>
<path d="M0 0 C1.98 0.99 3.96 1.98 6 3 C6 3.66 6 4.32 6 5 C6.66 5.33 7.32 5.66 8 6 C4.04 7.98 4.04 7.98 0 10 C-0.625 7.625 -0.625 7.625 -1 5 C-0.34 4.34 0.32 3.68 1 3 C0.67 2.01 0.34 1.02 0 0 Z " fill="#577CCB" transform="translate(119,162)"/>
<path d="M0 0 C0.78375 0.04125 1.5675 0.0825 2.375 0.125 C2.375 0.785 2.375 1.445 2.375 2.125 C0.10995035 3.32484797 -2.16089888 4.50994769 -4.4375 5.6875 C-5.08009766 6.02974609 -5.72269531 6.37199219 -6.38476562 6.72460938 C-8.09426395 7.6015023 -9.85821294 8.37015617 -11.625 9.125 C-12.615 8.795 -13.605 8.465 -14.625 8.125 C-13.635 7.795 -12.645 7.465 -11.625 7.125 C-11.625 6.465 -11.625 5.805 -11.625 5.125 C-10.51125 4.67125 -9.3975 4.2175 -8.25 3.75 C-4.96425901 2.27708163 -3.46029135 0.16477578 0 0 Z " fill="#73B3CA" transform="translate(321.625,319.875)"/>
<path d="M0 0 C5.47932789 1.54545146 10.11429181 4.15543212 15 7 C11.78762947 8.07079018 10.0604445 7.95713639 6.9375 6.6875 C5.93009766 6.29111328 5.93009766 6.29111328 4.90234375 5.88671875 C3 5 3 5 0 3 C0 2.01 0 1.02 0 0 Z " fill="#74B6CE" transform="translate(212,17)"/>
<path d="M0 0 C0 0.66 0 1.32 0 2 C-0.66 2 -1.32 2 -2 2 C-2 2.66 -2 3.32 -2 4 C-1.01 3.34 -0.02 2.68 1 2 C1.99 2.33 2.98 2.66 4 3 C3.34 3 2.68 3 2 3 C2 3.99 2 4.98 2 6 C2.99 6.33 3.98 6.66 5 7 C5 7.66 5 8.32 5 9 C0.96678237 7.78065514 -2.54269479 6.44045073 -6 4 C-6 3.34 -6 2.68 -6 2 C-2.25 0 -2.25 0 0 0 Z " fill="#7BBBD1" transform="translate(218,76)"/>
<path d="M0 0 C-0.33 1.32 -0.66 2.64 -1 4 C-3.49064888 4.68707555 -5.37886292 5 -8 5 C-10.00309329 5.31421071 -12.00371336 5.6451046 -14 6 C-10.44167106 1.60441719 -5.49342669 0 0 0 Z " fill="#71B4CE" transform="translate(91,47)"/>
<path d="M0 0 C0.99 0 1.98 0 3 0 C3.66 1.65 4.32 3.3 5 5 C5.66 5 6.32 5 7 5 C7 7.64 7 10.28 7 13 C4.64283596 10.84545751 3.21033856 8.80280126 1.8125 5.9375 C1.29623047 4.89916016 1.29623047 4.89916016 0.76953125 3.83984375 C0 2 0 2 0 0 Z " fill="#7A96CF" transform="translate(64,255)"/>
<path d="M0 0 C0.33 0.99 0.66 1.98 1 3 C-0.65 4.32 -2.3 5.64 -4 7 C-6.475 6.01 -6.475 6.01 -9 5 C-7.36885863 1.73771726 -3.62038485 0 0 0 Z " fill="#6FB6D2" transform="translate(323,236)"/>
<path d="M0 0 C2.64 0 5.28 0 8 0 C4.33997803 3.05001831 -1.07851471 7 -6 7 C-6 6.34 -6 5.68 -6 5 C-5.38125 4.9175 -4.7625 4.835 -4.125 4.75 C-1.81562433 4.18741541 -1.81562433 4.18741541 -0.75 1.9375 C-0.5025 1.298125 -0.255 0.65875 0 0 Z " fill="#72B5CF" transform="translate(348,305)"/>
<path d="M0 0 C4.32991096 1.20275304 8.14868759 3.73452211 12 6 C11.01 6.66 10.02 7.32 9 8 C9 7.34 9 6.68 9 6 C8.30132812 5.87882812 7.60265625 5.75765625 6.8828125 5.6328125 C5.51769531 5.38144531 5.51769531 5.38144531 4.125 5.125 C3.22007812 4.96257812 2.31515625 4.80015625 1.3828125 4.6328125 C-1 4 -1 4 -3 2 C-2.01 1.34 -1.02 0.68 0 0 Z " fill="#69B1CA" transform="translate(238,122)"/>
<path d="M0 0 C3.465 1.485 3.465 1.485 7 3 C6.25 7.75 6.25 7.75 4 10 C4 8.35 4 6.7 4 5 C2.68 5.33 1.36 5.66 0 6 C0 4.02 0 2.04 0 0 Z " fill="#5E82CD" transform="translate(0,101)"/>
<path d="M0 0 C3.72908331 0.50199198 7.36147686 1.04207023 11 2 C9.75823305 2.70226141 8.50614401 3.38629109 7.25 4.0625 C6.20585937 4.63677734 6.20585937 4.63677734 5.140625 5.22265625 C2.63859372 6.1312406 1.4667645 5.88336837 -1 5 C-0.67 3.35 -0.34 1.7 0 0 Z " fill="#64AFCC" transform="translate(137,81)"/>
<path d="M0 0 C-1.33333333 2.66666667 -2.66666667 5.33333333 -4 8 C-4.33 7.01 -4.66 6.02 -5 5 C-7.31 5.33 -9.62 5.66 -12 6 C-8.59780735 3.25207517 -4.51535412 0 0 0 Z " fill="#6FB4CE" transform="translate(209,179)"/>
<path d="M0 0 C4.03520597 1.58962659 8.01811282 3.28232318 12 5 C11.67 5.99 11.34 6.98 11 8 C8.9375 8.6875 8.9375 8.6875 7 9 C6.67 8.01 6.34 7.02 6 6 C5.175 5.505 4.35 5.01 3.5 4.5 C1 3 1 3 0 0 Z " fill="#80BCCE" transform="translate(141,73)"/>
<path d="M0 0 C0.33 0 0.66 0 1 0 C1.33 2.97 1.66 5.94 2 9 C2.66 9 3.32 9 4 9 C4 8.34 4 7.68 4 7 C8.625 4.875 8.625 4.875 12 6 C10.56988027 6.86646667 9.13059381 7.71781829 7.6875 8.5625 C6.48673828 9.27599609 6.48673828 9.27599609 5.26171875 10.00390625 C3 11 3 11 0 10 C0 6.7 0 3.4 0 0 Z " fill="#9ECCDA" transform="translate(193,375)"/>
<path d="M0 0 C0 0.66 0 1.32 0 2 C-0.99 2 -1.98 2 -3 2 C-3.33 3.32 -3.66 4.64 -4 6 C-4.721875 5.979375 -5.44375 5.95875 -6.1875 5.9375 C-8.91925138 5.99820559 -11.34256091 6.39258535 -14 7 C-12.66005295 4.3201059 -11.29175165 4.0859691 -8.5625 2.9375 C-7.75941406 2.59589844 -6.95632812 2.25429687 -6.12890625 1.90234375 C-5.42636719 1.60457031 -4.72382813 1.30679688 -4 1 C-2 0 -2 0 0 0 Z " fill="#88C0D6" transform="translate(231,168)"/>
<path d="M0 0 C-2.28929053 1.17154293 -4.58118362 2.33738074 -6.875 3.5 C-7.52597656 3.83386719 -8.17695313 4.16773437 -8.84765625 4.51171875 C-13.7734375 7 -13.7734375 7 -16 7 C-16 6.34 -16 5.68 -16 5 C-14.09118566 3.96455826 -12.17260796 2.94709915 -10.25 1.9375 C-8.64898437 1.08478516 -8.64898437 1.08478516 -7.015625 0.21484375 C-3.97406463 -1.01044806 -2.95106435 -1.25348607 0 0 Z " fill="#76B4D0" transform="translate(302,103)"/>
<path d="M0 0 C5.23272633 1.63958758 10.15196636 3.38952035 15 6 C15 6.33 15 6.66 15 7 C13.35 7 11.7 7 10 7 C10 6.34 10 5.68 10 5 C9.0925 4.87625 8.185 4.7525 7.25 4.625 C4.41029677 4.07890323 2.47409409 3.42736197 0 2 C0 1.34 0 0.68 0 0 Z " fill="#81BED3" transform="translate(311,67)"/>
<path d="M0 0 C-0.125 1.875 -0.125 1.875 -1 4 C-4.73397847 5.69726294 -7.92157346 6.23990744 -12 6 C-9.1490916 2.47828963 -4.56486714 0 0 0 Z " fill="#7BB9D2" transform="translate(245,62)"/>
<path d="M0 0 C2.3125 1.5625 2.3125 1.5625 4 3 C1.48138718 3.06996147 -0.63853976 3.10953341 -3.0625 2.375 C-5.6297635 1.87811029 -6.81469177 2.67320572 -9 4 C-9.66 3.34 -10.32 2.68 -11 2 C-6.92603082 -0.36858673 -4.54661189 -1.67506754 0 0 Z " fill="#83B8CF" transform="translate(186,95)"/>
<path d="M0 0 C0.721875 0.144375 1.44375 0.28875 2.1875 0.4375 C3.5796875 0.7159375 3.5796875 0.7159375 5 1 C6.66666667 1.33333333 8.33333333 1.66666667 10 2 C10 2.66 10 3.32 10 4 C10.66 4 11.32 4 12 4 C12 4.99 12 5.98 12 7 C7.69235185 5.43358249 3.93828536 3.31663844 0 1 C0 0.67 0 0.34 0 0 Z " fill="#7A96CE" transform="translate(154,377)"/>
<path d="M0 0 C0.33 0.99 0.66 1.98 1 3 C0.34 3 -0.32 3 -1 3 C-1.33 3.99 -1.66 4.98 -2 6 C-6.455 6.495 -6.455 6.495 -11 7 C-7.54319097 4.23455278 -3.85658398 2.15078722 0 0 Z " fill="#83B9CE" transform="translate(359,103)"/>
<path d="M0 0 C-0.66 0.66 -1.32 1.32 -2 2 C-2.69748583 3.31747324 -3.36959957 4.64914193 -4 6 C-7 5 -7 5 -10 3 C-3.375 -1.125 -3.375 -1.125 0 0 Z " fill="#86C3DC" transform="translate(237,280)"/>
<path d="M0 0 C1.32 0.33 2.64 0.66 4 1 C4.66 3.31 5.32 5.62 6 8 C5.34 8.66 4.68 9.32 4 10 C3.32845067 8.71086513 2.66291141 7.41859796 2 6.125 C1.62875 5.40570313 1.2575 4.68640625 0.875 3.9453125 C0 2 0 2 0 0 Z " fill="#6D92CF" transform="translate(71,268)"/>
<path d="M0 0 C2.97 0 5.94 0 9 0 C8.67 1.32 8.34 2.64 8 4 C5.03 3.67 2.06 3.34 -1 3 C-0.67 2.01 -0.34 1.02 0 0 Z " fill="#5BAED1" transform="translate(195,184)"/>
<path d="M0 0 C1.485 0.99 1.485 0.99 3 2 C2.34 2 1.68 2 1 2 C1 9.26 1 16.52 1 24 C0.67 24 0.34 24 0 24 C-0.1958691 20.18788097 -0.38029565 16.37529466 -0.5625 12.5625 C-0.61857422 11.47388672 -0.67464844 10.38527344 -0.73242188 9.26367188 C-0.78076172 8.22919922 -0.82910156 7.19472656 -0.87890625 6.12890625 C-0.9260376 5.17056885 -0.97316895 4.21223145 -1.02172852 3.22485352 C-1 1 -1 1 0 0 Z " fill="#9AB9E3" transform="translate(116,160)"/>
<path d="M0 0 C-1.78881736 1.00508801 -3.58114696 2.00392736 -5.375 3 C-6.37273437 3.556875 -7.37046875 4.11375 -8.3984375 4.6875 C-11 6 -11 6 -13 6 C-12 3 -12 3 -10.29296875 1.796875 C-9.59816406 1.45140625 -8.90335938 1.1059375 -8.1875 0.75 C-7.50042969 0.39421875 -6.81335938 0.0384375 -6.10546875 -0.328125 C-3.64922558 -1.11193544 -2.39957614 -0.84119973 0 0 Z " fill="#81BAD2" transform="translate(227,42)"/>
<path d="M0 0 C0 0.99 0 1.98 0 3 C-2.31 3.66 -4.62 4.32 -7 5 C-7.33 3.68 -7.66 2.36 -8 1 C-2.25 -1.125 -2.25 -1.125 0 0 Z " fill="#5EAFD4" transform="translate(212,375)"/>
<path d="M0 0 C0.66 0 1.32 0 2 0 C2.66 1.32 3.32 2.64 4 4 C3.01 4.495 3.01 4.495 2 5 C2 7.31 2 9.62 2 12 C1.01 12.495 1.01 12.495 0 13 C0 8.71 0 4.42 0 0 Z " fill="#4B79C0" transform="translate(117,162)"/>
<path d="M0 0 C3.3 1.65 6.6 3.3 10 5 C8.02 5.99 8.02 5.99 6 7 C3.75 6.125 3.75 6.125 2 5 C2 4.01 2 3.02 2 2 C1.34 2 0.68 2 0 2 C0 1.34 0 0.68 0 0 Z " fill="#75B7CF" transform="translate(219,112)"/>
<path d="M0 0 C-1.78614318 1.03046722 -3.57910018 2.04913236 -5.375 3.0625 C-6.87160156 3.91521484 -6.87160156 3.91521484 -8.3984375 4.78515625 C-9.25695312 5.18605469 -10.11546875 5.58695312 -11 6 C-11.66 5.67 -12.32 5.34 -13 5 C-9.44809236 0.85610776 -5.36327214 -1.71439369 0 0 Z " fill="#7EBCD3" transform="translate(108,104)"/>
<path d="M0 0 C-3.12488567 2.52394612 -6.31314387 4.39701907 -10 6 C-10.66 5.67 -11.32 5.34 -12 5 C-8.90088062 0.35132094 -5.42435126 -0.30996293 0 0 Z " fill="#88BFD5" transform="translate(224,371)"/>
<path d="M0 0 C3.7037037 4.9382716 3.7037037 4.9382716 4 8 C3.01 9.485 3.01 9.485 2 11 C1.34 11 0.68 11 0 11 C0 7.37 0 3.74 0 0 Z " fill="#6F8ECF" transform="translate(85,205)"/>
<path d="M0 0 C0 1.32 0 2.64 0 4 C-3.3 4.33 -6.6 4.66 -10 5 C-3.33333333 0 -3.33333333 0 0 0 Z " fill="#6FB5CD" transform="translate(340,114)"/>
<path d="M0 0 C6.75 0.875 6.75 0.875 9 2 C9.625 4.0625 9.625 4.0625 10 6 C6.00499382 4.6302836 3.19990508 2.74277578 0 0 Z " fill="#7F9AD5" transform="translate(141,369)"/>
<path d="M0 0 C2.64465038 3.1254959 3.84414715 6.08788267 5 10 C3.68 10.33 2.36 10.66 1 11 C1.020625 10.195625 1.04125 9.39125 1.0625 8.5625 C1.29633621 6.06645115 1.29633621 6.06645115 0 5 C-0.04063832 3.33382885 -0.042721 1.66611905 0 0 Z " fill="#7A99D0" transform="translate(71,175)"/>
<path d="M0 0 C3.42931954 3.7559214 4.56429083 8.23466745 6 13 C3 12 3 12 1.3125 8.75 C0.16055679 5.45873369 -0.31025348 3.4127883 0 0 Z " fill="#8AA5D7" transform="translate(49,128)"/>
<path d="M0 0 C0.66 0.33 1.32 0.66 2 1 C1.67 1.66 1.34 2.32 1 3 C0.34 3 -0.32 3 -1 3 C-0.67 4.32 -0.34 5.64 0 7 C-2.475 6.01 -2.475 6.01 -5 5 C-5 4.34 -5 3.68 -5 3 C-2.625 1.3125 -2.625 1.3125 0 0 Z " fill="#89BED4" transform="translate(119,126)"/>
<path d="M0 0 C4.20626034 1.50223584 5.73900021 4.28550034 8 8 C7.01 8 6.02 8 5 8 C3.61328125 6.50390625 3.61328125 6.50390625 2.3125 4.5625 C1.87550781 3.92441406 1.43851562 3.28632813 0.98828125 2.62890625 C0 1 0 1 0 0 Z " fill="#7A95CB" transform="translate(111,345)"/>
<path d="M0 0 C0.99 0.33 1.98 0.66 3 1 C3 2.32 3 3.64 3 5 C3.66 5 4.32 5 5 5 C5 6.32 5 7.64 5 9 C5.66 9.33 6.32 9.66 7 10 C6.01 10 5.02 10 4 10 C3.32845067 8.71086513 2.66291141 7.41859796 2 6.125 C1.62875 5.40570313 1.2575 4.68640625 0.875 3.9453125 C0 2 0 2 0 0 Z " fill="#91ABD7" transform="translate(105,334)"/>
<path d="M0 0 C0.66 0.33 1.32 0.66 2 1 C1.67 1.66 1.34 2.32 1 3 C2.65 3.33 4.3 3.66 6 4 C4.25 5.125 4.25 5.125 2 6 C-0.25 5.125 -0.25 5.125 -2 4 C-1.34 2.68 -0.68 1.36 0 0 Z " fill="#66AECE" transform="translate(169,154)"/>
<path d="M0 0 C3.91211733 1.15585285 6.8745041 2.35534962 10 5 C7 6 7 6 5.17578125 5.22265625 C3.45052083 4.1484375 1.72526042 3.07421875 0 2 C0 1.34 0 0.68 0 0 Z " fill="#819ED0" transform="translate(23,113)"/>
<path d="M0 0 C0 0.66 0 1.32 0 2 C-0.99 2 -1.98 2 -3 2 C-3 2.99 -3 3.98 -3 5 C-2.34 5 -1.68 5 -1 5 C-1 5.66 -1 6.32 -1 7 C-2.98 6.34 -4.96 5.68 -7 5 C-7 4.34 -7 3.68 -7 3 C-2.61538462 0 -2.61538462 0 0 0 Z " fill="#7FB8C8" transform="translate(126,28)"/>
<path d="M0 0 C2 1 2 1 3 3 C-0.50776784 4.60355101 -3.14354879 5.22036864 -7 5 C-4.702779 3.25728062 -2.40133271 1.60088848 0 0 Z " fill="#71B6CD" transform="translate(150,15)"/>
<path d="M0 0 C0.33 1.98 0.66 3.96 1 6 C0.67 5.01 0.34 4.02 0 3 C-2.64 3.33 -5.28 3.66 -8 4 C-2.7826087 0 -2.7826087 0 0 0 Z " fill="#7CBCD3" transform="translate(267,150)"/>
<path d="M0 0 C0 1.32 0 2.64 0 4 C-3.32534757 5.10844919 -5.62182575 4.84454356 -9 4 C-3 0 -3 0 0 0 Z " fill="#74B7CF" transform="translate(308,130)"/>
<path d="M0 0 C6.4 0.49230769 6.4 0.49230769 9.4375 3.0625 C10.2109375 4.0215625 10.2109375 4.0215625 11 5 C9.53932801 4.54917531 8.08151968 4.08906463 6.625 3.625 C5.81289062 3.36976562 5.00078125 3.11453125 4.1640625 2.8515625 C2 2 2 2 0 0 Z " fill="#81BBD3" transform="translate(67,107)"/>
<path d="M0 0 C4.05606165 0.46800711 7.46588679 0.87953208 11 3 C11 3.66 11 4.32 11 5 C9.53932801 4.54917531 8.08151968 4.08906463 6.625 3.625 C5.81289062 3.36976562 5.00078125 3.11453125 4.1640625 2.8515625 C2 2 2 2 0 0 Z " fill="#7BB8CD" transform="translate(235,91)"/>
<path d="M0 0 C1.46067199 0.45082469 2.91848032 0.91093537 4.375 1.375 C5.18710938 1.63023438 5.99921875 1.88546875 6.8359375 2.1484375 C9 3 9 3 11 5 C10.01 5.33 9.02 5.66 8 6 C8 5.34 8 4.68 8 4 C5.69 3.67 3.38 3.34 1 3 C0.67 2.01 0.34 1.02 0 0 Z " fill="#79BCD4" transform="translate(130,68)"/>
<path d="M0 0 C2.64 0.33 5.28 0.66 8 1 C6 3 6 3 2.375 3.125 C1.26125 3.08375 0.1475 3.0425 -1 3 C-0.67 2.01 -0.34 1.02 0 0 Z " fill="#55ADC5" transform="translate(261,347)"/>
<path d="M0 0 C1.9375 0.5625 1.9375 0.5625 4 2 C4.75 5.625 4.75 5.625 5 9 C2.67527795 6.14693203 1.2491742 3.45925163 0 0 Z M5 0 C5.33 0.66 5.66 1.32 6 2 C5.34 1.67 4.68 1.34 4 1 C4.33 0.67 4.66 0.34 5 0 Z " fill="#7998D1" transform="translate(84,294)"/>
<path d="M0 0 C-1.4562545 0.67119549 -2.91507867 1.33681807 -4.375 2 C-5.59316406 2.556875 -5.59316406 2.556875 -6.8359375 3.125 C-9 4 -9 4 -11 4 C-11 3.01 -11 2.02 -11 1 C-4.03571429 -1.27678571 -4.03571429 -1.27678571 0 0 Z " fill="#69B2CA" transform="translate(212,263)"/>
<path d="M0 0 C0.33 0.66 0.66 1.32 1 2 C1.66 2 2.32 2 3 2 C3.33 3.98 3.66 5.96 4 8 C3.34 8 2.68 8 2 8 C0.3125 5.6875 0.3125 5.6875 -1 3 C-0.67 2.01 -0.34 1.02 0 0 Z " fill="#6887CF" transform="translate(52,229)"/>
<path d="M0 0 C0.66 0.33 1.32 0.66 2 1 C1.67 2.98 1.34 4.96 1 7 C0.34 7 -0.32 7 -1 7 C-1 6.34 -1 5.68 -1 5 C-1.66 5 -2.32 5 -3 5 C-1.125 1.125 -1.125 1.125 0 0 Z " fill="#62AECB" transform="translate(123,124)"/>
<path d="M0 0 C-4.43076923 3.07692308 -4.43076923 3.07692308 -7.3125 2.6875 C-8.1478125 2.3471875 -8.1478125 2.3471875 -9 2 C-9 1.34 -9 0.68 -9 0 C-5.62182575 -0.84454356 -3.32534757 -1.10844919 0 0 Z " fill="#8DBDD1" transform="translate(286,111)"/>
<path d="M0 0 C2.475 0.99 2.475 0.99 5 2 C5 2.66 5 3.32 5 4 C4.34 4 3.68 4 3 4 C3 4.66 3 5.32 3 6 C1.68 5.34 0.36 4.68 -1 4 C-0.67 2.68 -0.34 1.36 0 0 Z " fill="#6185CC" transform="translate(8,105)"/>
<path d="M0 0 C-0.33 1.32 -0.66 2.64 -1 4 C-3.64 4 -6.28 4 -9 4 C-6.10130984 1.70103884 -3.84906588 0 0 0 Z " fill="#77BBD3" transform="translate(139,22)"/>
<path d="M0 0 C0.66 0.33 1.32 0.66 2 1 C-0.06756277 3.7972908 -1.14440371 4.02692273 -4.6875 4.6875 C-5.780625 4.790625 -6.87375 4.89375 -8 5 C-5.45378681 2.99940392 -3.01962385 1.20784954 0 0 Z " fill="#8CC5D9" transform="translate(219,287)"/>
<path d="M0 0 C0.66 0.33 1.32 0.66 2 1 C0.71937515 2.7074998 -0.61767557 4.37373596 -2 6 C-2.66 6 -3.32 6 -4 6 C-4 5.34 -4 4.68 -4 4 C-4.66 3.67 -5.32 3.34 -6 3 C-4.03533587 1.93224776 -2.03144641 0.93446535 0 0 Z " fill="#77B7D1" transform="translate(305,244)"/>
<path d="M0 0 C0.66 0.33 1.32 0.66 2 1 C1.67 2.32 1.34 3.64 1 5 C-1.97 4.505 -1.97 4.505 -5 4 C-3.35 2.68 -1.7 1.36 0 0 Z M-2 5 C0 6 0 6 0 6 Z " fill="#7EBDD6" transform="translate(214,175)"/>
<path d="M0 0 C2.97 0.33 5.94 0.66 9 1 C9 2.32 9 3.64 9 5 C4.89198233 3.81323934 3.10551666 3.10551666 0 0 Z " fill="#7FBAD2" transform="translate(148,147)"/>
<path d="M0 0 C3.1875 0.875 3.1875 0.875 6 2 C3.66785852 3.20628008 1.50357861 4.1654738 -1 5 C-1 4.34 -1 3.68 -1 3 C-1.66 2.67 -2.32 2.34 -3 2 C-2.01 1.34 -1.02 0.68 0 0 Z " fill="#6BB4D5" transform="translate(326,74)"/>
<path d="M0 0 C4.55384615 -0.36923077 4.55384615 -0.36923077 6.8125 1.5 C7.204375 1.995 7.59625 2.49 8 3 C5.39417629 3.93065133 4.35801776 4.14917407 1.75 3.0625 C1.1725 2.711875 0.595 2.36125 0 2 C0 1.34 0 0.68 0 0 Z " fill="#6DB1CD" transform="translate(170,57)"/>
<path d="M0 0 C0.66 0.33 1.32 0.66 2 1 C1.67 1.99 1.34 2.98 1 4 C-0.98 4.33 -2.96 4.66 -5 5 C-4 2 -4 2 -2.0625 0.75 C-1.381875 0.5025 -0.70125 0.255 0 0 Z " fill="#76B7CB" transform="translate(199,297)"/>
<path d="M0 0 C3 1 3 1 5 4 C5.125 6.6875 5.125 6.6875 5 9 C1.9083091 6.47043472 1.09068668 3.77545388 0 0 Z " fill="#829ED3" transform="translate(57,242)"/>
<path d="M0 0 C4.455 1.98 4.455 1.98 9 4 C5 5 5 5 2.25 3.6875 C1.5075 3.130625 0.765 2.57375 0 2 C0 1.34 0 0.68 0 0 Z " fill="#7996CA" transform="translate(129,167)"/>
<path d="M0 0 C2.875 -0.125 2.875 -0.125 6 0 C6.66 0.66 7.32 1.32 8 2 C6.25 3.125 6.25 3.125 4 4 C1.75 3.125 1.75 3.125 0 2 C0 1.34 0 0.68 0 0 Z " fill="#6CB6D0" transform="translate(119,132)"/>
<path d="M0 0 C-0.33 1.32 -0.66 2.64 -1 4 C-3.31 3.34 -5.62 2.68 -8 2 C-4.77208445 -0.1519437 -3.71599191 -0.20086443 0 0 Z " fill="#6DB3D0" transform="translate(231,84)"/>
<path d="M0 0 C0.6875 2.0625 0.6875 2.0625 1 4 C-0.32 3.67 -1.64 3.34 -3 3 C-3 2.34 -3 1.68 -3 1 C-4.32 1.33 -5.64 1.66 -7 2 C-5.26578631 -1.46842738 -3.40984787 -1.13661596 0 0 Z " fill="#70B7D6" transform="translate(164,11)"/>
<path d="M0 0 C1.65 0 3.3 0 5 0 C5.66 1.65 6.32 3.3 7 5 C3.34683329 3.75023244 2.21934164 3.32901247 0 0 Z " fill="#7A95D1" transform="translate(134,364)"/>
<path d="M0 0 C1.98 0 3.96 0 6 0 C3.37801226 2.15377564 1.35595828 3.40072174 -2 4 C-2.33 3.34 -2.66 2.68 -3 2 C-2.01 2 -1.02 2 0 2 C0 1.34 0 0.68 0 0 Z " fill="#80BBD3" transform="translate(310,325)"/>
<path d="M0 0 C2.31 0 4.62 0 7 0 C4.37801226 2.15377564 2.35595828 3.40072174 -1 4 C-0.67 2.68 -0.34 1.36 0 0 Z " fill="#7DBACE" transform="translate(331,314)"/>
<path d="M0 0 C0.99 0 1.98 0 3 0 C3.66 1.98 4.32 3.96 5 6 C3.68 5.67 2.36 5.34 1 5 C0.67 3.35 0.34 1.7 0 0 Z " fill="#6C8CC9" transform="translate(91,222)"/>
<path d="M0 0 C0.33 1.32 0.66 2.64 1 4 C-0.65 4.33 -2.3 4.66 -4 5 C-4 4.01 -4 3.02 -4 2 C-2.68 1.34 -1.36 0.68 0 0 Z " fill="#6CB0CA" transform="translate(359,217)"/>
<path d="M0 0 C-5.2734375 3.22265625 -5.2734375 3.22265625 -7 4 C-7.66 3.67 -8.32 3.34 -9 3 C-6.27596221 -1.08605669 -4.4643819 -1.38549783 0 0 Z " fill="#7DB8D2" transform="translate(324,207)"/>
<path d="M0 0 C2.31 0.33 4.62 0.66 7 1 C4.64561267 2.42944945 3.51967567 3.08661261 0.75 2.625 C0.1725 2.41875 -0.405 2.2125 -1 2 C-0.67 1.34 -0.34 0.68 0 0 Z " fill="#47A8C6" transform="translate(239,164)"/>
<path d="M0 0 C3.465 1.485 3.465 1.485 7 3 C6.67 3.66 6.34 4.32 6 5 C4.68 5 3.36 5 2 5 C1.34 3.35 0.68 1.7 0 0 Z " fill="#698BCC" transform="translate(39,121)"/>
</svg>
